# xmcd
# Track frame offsets:
# 150
# 17590
# 31414
# 45435
# 58933
# 75578
# 100342
# 115449
# 121571
# 134241
# 158740
# 171801
# 188657
# 210068
# 220518
# 238285
# 252763
# 259091
# 277887
# 290378
# 308514
#
# Disc length: 4357 seconds
# Revision: 0
# Processed by: cddbd v1.4PL0 Copyright (c) Steve Scherf et al.
# Submitted via: VisiTrax 2.9.5.181 - For more info visit www.synapsa.com
#
DISCID=19110315
DTITLE=Crosby, Stills, Nash and Young - Crosby, Stills and Nash [Box Set] (2 of 4
DTITLE=)
DYEAR=1900
DGENRE=Misc
TTITLE0=Woodstock
TTITLE1=Ohio
TTITLE2=Love the One You're With
TTITLE3=Our House
TTITLE4=Old Times Good Times
TTITLE5=The Lee Shore
TTITLE6=Music Is Love
TTITLE7=I'd Swear There Was Somebody Here
TTITLE8=Man in the Mirror
TTITLE9=Black Queen
TTITLE10=Military Madness
TTITLE11=Urge for Going
TTITLE12=I Used to Be a King
TTITLE13=Simple Man
TTITLE14=Southbound Train
TTITLE15=Change Partners
TTITLE16=My Love Is a Gentle Thing
TTITLE17=Word Game
TTITLE18=Johnny's Garden
TTITLE19=So Begins the Task
TTITLE20=Turn Back the Pages
EXTD=
EXTT0=
EXTT1=
EXTT2=
EXTT3=
EXTT4=
EXTT5=
EXTT6=
EXTT7=
EXTT8=
EXTT9=
EXTT10=
EXTT11=
EXTT12=
EXTT13=
EXTT14=
EXTT15=
EXTT16=
EXTT17=
EXTT18=
EXTT19=
EXTT20=
PLAYORDER=
